<svg width="26" height="26" viewBox="0 0 26 26" fill="none" xmlns="http://www.w3.org/2000/svg">
<path d="M1.625 9.85833C1.625 6.9764 1.625 5.53543 2.18586 4.43467C2.67921 3.46642 3.46642 2.67921 4.43467 2.18586C5.53543 1.625 6.9764 1.625 9.85833 1.625H16.1417C19.0236 1.625 20.4646 1.625 21.5653 2.18586C22.5336 2.67921 23.3208 3.46642 23.8141 4.43467C24.375 5.53543 24.375 6.9764 24.375 9.85833V16.1417C24.375 19.0236 24.375 20.4646 23.8141 21.5653C23.3208 22.5336 22.5336 23.3208 21.5653 23.8141C20.4646 24.375 19.0236 24.375 16.1417 24.375H9.85833C6.9764 24.375 5.53543 24.375 4.43467 23.8141C3.46642 23.3208 2.67921 22.5336 2.18586 21.5653C1.625 20.4646 1.625 19.0236 1.625 16.1417V9.85833Z" fill="#49021F"/>
<path d="M9.41857 8.28384V18.2546C9.41857 18.3591 9.37279 18.4113 9.28124 18.4112H7.43455C7.35305 18.4112 7.31236 18.359 7.3125 18.2546V8.28384C7.3125 8.20044 7.35828 8.15869 7.44983 8.15861H9.29647C9.36653 8.1484 9.42852 8.21199 9.41857 8.28384Z" fill="#FF3366"/>
<path d="M14.8822 18.5677C14.1797 18.5786 13.4837 18.4289 12.8448 18.1294C11.4883 17.4855 10.8988 16.0603 10.899 14.5919C10.8872 13.127 11.6631 11.7313 12.9287 11.0387C13.8024 10.5423 14.8301 10.4162 15.8131 10.5065V7.42289C15.8131 7.35 15.8437 7.31332 15.9047 7.31332H17.8276C17.8802 7.30562 17.9267 7.35332 17.9192 7.40722V16.658C17.9192 17.0397 17.957 17.42 17.9803 17.8007C17.984 17.8657 17.9464 17.93 17.8887 17.9572C17.3926 18.1694 16.8759 18.3268 16.3473 18.4268C15.864 18.5183 15.3737 18.5654 14.8822 18.5677ZM15.8131 16.6267V12.3535C14.4255 11.968 13.0659 13.0274 13.0661 14.4979C13.0325 16.038 14.4057 17.0489 15.8131 16.6267Z" fill="#FF3366"/>
</svg>
