<svg width="26" height="26" viewBox="0 0 26 26" fill="none" xmlns="http://www.w3.org/2000/svg">
<path d="M1.625 9.85833C1.625 6.9764 1.625 5.53543 2.18586 4.43467C2.67921 3.46642 3.46642 2.67921 4.43467 2.18586C5.53543 1.625 6.9764 1.625 9.85833 1.625H16.1417C19.0236 1.625 20.4646 1.625 21.5653 2.18586C22.5336 2.67921 23.3208 3.46642 23.8141 4.43467C24.375 5.53543 24.375 6.9764 24.375 9.85833V16.1417C24.375 19.0236 24.375 20.4646 23.8141 21.5653C23.3208 22.5336 22.5336 23.3208 21.5653 23.8141C20.4646 24.375 19.0236 24.375 16.1417 24.375H9.85833C6.9764 24.375 5.53543 24.375 4.43467 23.8141C3.46642 23.3208 2.67921 22.5336 2.18586 21.5653C1.625 20.4646 1.625 19.0236 1.625 16.1417V9.85833Z" fill="#00005B"/>
<path d="M6.5 17.709V7.48147C6.5 7.41189 6.52852 7.37214 6.59507 7.37214C7.57757 7.37214 8.55962 7.3125 9.54239 7.3125C11.1371 7.3125 12.8637 7.86828 13.469 9.56872C13.6116 9.98617 13.6876 10.4136 13.6876 10.8608C13.6876 11.7156 13.4975 12.4213 13.1172 12.9779C12.0549 14.5327 10.2136 14.5085 8.56312 14.5085V17.699C8.57603 17.7935 8.49705 17.8382 8.42051 17.8382H6.61409C6.53803 17.8382 6.5 17.7984 6.5 17.709ZM8.57263 9.29042V12.63C9.22705 12.6789 9.91187 12.6842 10.5407 12.471C11.2348 12.2669 11.615 11.6544 11.615 10.9205C11.6343 10.2951 11.3 9.69502 10.7308 9.46932C10.1096 9.20604 9.24321 9.19027 8.57263 9.29042Z" fill="#9999FF"/>
<path d="M14.9764 9.92219H16.6449C16.7369 9.92303 16.8195 9.98946 16.8439 10.0822C16.9662 10.366 16.9812 10.7083 16.9817 11.0147C17.2678 10.6664 17.6128 10.3762 17.9995 10.1586C18.4143 9.91328 18.8845 9.78892 19.361 9.79858C19.4401 9.78676 19.5101 9.85993 19.4988 9.9426V11.8789C19.4988 11.9536 19.4476 11.9909 19.3457 11.9909C18.6395 11.9399 17.54 12.1144 17.0269 12.695V17.7296C17.0269 17.8256 16.986 17.8736 16.9044 17.8736H15.1142C15.0263 17.8868 14.9487 17.8041 14.9611 17.7136V12.2469C14.9611 11.5144 14.9763 10.7598 14.8693 10.0342C14.8528 9.96746 14.914 9.90536 14.9764 9.92219Z" fill="#9999FF"/>
</svg>
