<svg width="26" height="26" viewBox="0 0 26 26" fill="none" xmlns="http://www.w3.org/2000/svg">
<path d="M1.625 9.85833C1.625 6.9764 1.625 5.53543 2.18586 4.43467C2.67921 3.46642 3.46642 2.67921 4.43467 2.18586C5.53543 1.625 6.9764 1.625 9.85833 1.625H16.1417C19.0236 1.625 20.4646 1.625 21.5653 2.18586C22.5336 2.67921 23.3208 3.46642 23.8141 4.43467C24.375 5.53543 24.375 6.9764 24.375 9.85833V16.1417C24.375 19.0236 24.375 20.4646 23.8141 21.5653C23.3208 22.5336 22.5336 23.3208 21.5653 23.8141C20.4646 24.375 19.0236 24.375 16.1417 24.375H9.85833C6.9764 24.375 5.53543 24.375 4.43467 23.8141C3.46642 23.3208 2.67921 22.5336 2.18586 21.5653C1.625 20.4646 1.625 19.0236 1.625 16.1417V9.85833Z" fill="#00005B"/>
<path d="M11.2038 15.8956H7.67845L6.96117 18.1853C6.94125 18.2702 6.86307 18.3303 6.77802 18.3262H4.99244C4.89061 18.3262 4.855 18.2688 4.88561 18.154L7.93787 9.17526C7.96842 9.08136 7.99892 8.98956 8.02947 8.86945C8.0694 8.66062 8.08984 8.44835 8.09052 8.23554C8.08177 8.17266 8.13603 8.11699 8.19735 8.12595H10.6239C10.695 8.12595 10.7357 8.15205 10.746 8.20423L14.2104 18.1696C14.2409 18.2741 14.2103 18.3263 14.1188 18.3262H12.1348C12.0652 18.3341 11.9987 18.2864 11.9822 18.2166L11.2038 15.8956ZM8.22785 13.965H10.6392C10.243 12.6113 9.7959 11.2753 9.43353 9.91095C9.02289 11.3262 8.64372 12.6387 8.22785 13.965Z" fill="#9999FF"/>
<path d="M16.7869 15.0115C16.9272 16.1741 17.9035 16.7284 18.9846 16.7048C19.5942 16.6928 20.2456 16.5982 20.8152 16.3677C20.866 16.3261 20.8916 16.352 20.8916 16.4459V17.9329C20.8964 18.0103 20.8641 18.0794 20.8 18.1208C20.092 18.4424 19.2793 18.5394 18.5114 18.5271C16.222 18.5271 14.6497 16.9139 14.6503 14.5669C14.6443 12.3428 16.0872 10.4664 18.3283 10.4664C20.228 10.4171 21.5432 11.9381 21.5485 13.8312C21.5485 14.176 21.5292 14.522 21.4874 14.8643C21.4793 14.9348 21.4193 14.9896 21.3501 14.9895C19.8329 14.9895 18.3083 15.0115 16.7869 15.0115ZM16.7869 13.5856C17.6325 13.5856 18.4829 13.6155 19.3279 13.5777C19.4549 13.5647 19.5493 13.5407 19.5493 13.4086C19.5316 12.7067 18.9393 12.1295 18.252 12.1564C17.4216 12.1049 16.8901 12.8059 16.7869 13.5856Z" fill="#9999FF"/>
</svg>
