<svg width="26" height="26" viewBox="0 0 26 26" fill="none" xmlns="http://www.w3.org/2000/svg">
<path d="M1.625 9.85833C1.625 6.9764 1.625 5.53543 2.18586 4.43467C2.67921 3.46642 3.46642 2.67921 4.43467 2.18586C5.53543 1.625 6.9764 1.625 9.85833 1.625H16.1417C19.0236 1.625 20.4646 1.625 21.5653 2.18586C22.5336 2.67921 23.3208 3.46642 23.8141 4.43467C24.375 5.53543 24.375 6.9764 24.375 9.85833V16.1417C24.375 19.0236 24.375 20.4646 23.8141 21.5653C23.3208 22.5336 22.5336 23.3208 21.5653 23.8141C20.4646 24.375 19.0236 24.375 16.1417 24.375H9.85833C6.9764 24.375 5.53543 24.375 4.43467 23.8141C3.46642 23.3208 2.67921 22.5336 2.18586 21.5653C1.625 20.4646 1.625 19.0236 1.625 16.1417V9.85833Z" fill="#001E36"/>
<path d="M6.5 18.2944V8.29028C6.5 8.22222 6.52844 8.18333 6.59479 8.18333C7.57436 8.18333 8.55349 8.125 9.53333 8.125C11.1233 8.125 12.8448 8.66864 13.4482 10.3319C13.5904 10.7403 13.6663 11.1583 13.6663 11.5958C13.6663 12.4319 13.4767 13.1222 13.0975 13.6667C12.0383 15.1875 10.2026 15.1639 8.55698 15.1639V18.2847C8.56985 18.3771 8.49111 18.4208 8.41479 18.4208H6.61375C6.53792 18.4208 6.5 18.3819 6.5 18.2944ZM8.56646 10.0597V13.3264C9.21894 13.3742 9.90172 13.3794 10.5286 13.1708C11.2208 12.9712 11.5998 12.3721 11.5998 11.6542C11.619 11.0424 11.2857 10.4555 10.7182 10.2347C10.0989 9.97719 9.23504 9.96176 8.56646 10.0597Z" fill="#31A8FF"/>
<path d="M19.5785 12.681C19.2917 12.5298 18.9862 12.4193 18.6705 12.3523C18.2647 12.2568 16.6642 11.9224 16.6636 12.7593C16.6778 13.2265 17.4194 13.4554 17.7471 13.5888C18.8975 13.9838 20.1993 14.6898 20.1737 16.1089C20.2089 17.8757 18.4972 18.5819 17.0299 18.5821C16.266 18.59 15.4702 18.4717 14.7711 18.1438C14.7044 18.1085 14.6615 18.0329 14.6643 17.956V16.2655C14.6568 16.1977 14.7295 16.1385 14.7864 16.1872C15.4714 16.6014 16.2833 16.8026 17.0756 16.8133C17.4254 16.8133 18.1187 16.7794 18.1134 16.2655C18.1134 15.7723 17.2841 15.5455 16.9535 15.4202C16.4743 15.2491 16.02 15.0122 15.6029 14.7158C15.02 14.3001 14.6544 13.6335 14.6643 12.9001C14.6609 11.2366 16.2366 10.4899 17.6556 10.4896C18.319 10.4841 19.0313 10.5333 19.6488 10.8026C19.7376 10.8288 19.756 10.9223 19.7557 11.0061V12.5871C19.7613 12.6852 19.6523 12.7186 19.5785 12.681Z" fill="#31A8FF"/>
</svg>
