<svg width="26" height="26" viewBox="0 0 26 26" fill="none" xmlns="http://www.w3.org/2000/svg">
<path d="M1.625 9.85833C1.625 6.9764 1.625 5.53543 2.18586 4.43467C2.67921 3.46642 3.46642 2.67921 4.43467 2.18586C5.53543 1.625 6.9764 1.625 9.85833 1.625H16.1417C19.0236 1.625 20.4646 1.625 21.5653 2.18586C22.5336 2.67921 23.3208 3.46642 23.8141 4.43467C24.375 5.53543 24.375 6.9764 24.375 9.85833V16.1417C24.375 19.0236 24.375 20.4646 23.8141 21.5653C23.3208 22.5336 22.5336 23.3208 21.5653 23.8141C20.4646 24.375 19.0236 24.375 16.1417 24.375H9.85833C6.9764 24.375 5.53543 24.375 4.43467 23.8141C3.46642 23.3208 2.67921 22.5336 2.18586 21.5653C1.625 20.4646 1.625 19.0236 1.625 16.1417V9.85833Z" fill="#330000"/>
<path d="M12.6493 15.922H9.12395L8.40667 18.2073C8.38675 18.2922 8.30857 18.3523 8.22352 18.3482H6.43794C6.33611 18.3482 6.3005 18.2908 6.33111 18.176L9.38338 9.15996C9.41392 9.06606 9.44446 8.9591 9.47497 8.83908C9.5149 8.63024 9.53534 8.41798 9.53602 8.20516C9.52727 8.14229 9.58253 8.08676 9.64285 8.09558H12.0694C12.1405 8.09558 12.1812 8.12167 12.1915 8.17386L15.6559 18.1916C15.6864 18.296 15.6558 18.3482 15.5643 18.3481H13.5803C13.5107 18.3561 13.4442 18.3084 13.4277 18.2386L12.6493 15.922ZM9.67335 13.9497H12.0847C11.6885 12.596 11.2414 11.26 10.879 9.89566C10.4881 11.2623 10.0615 12.6234 9.67335 13.9497Z" fill="#FF9A00"/>
<path d="M17.716 9.75473C17.5603 9.76114 17.4051 9.73378 17.2604 9.67444C17.1158 9.6151 16.985 9.52512 16.8766 9.41037C16.7685 9.29065 16.6845 9.15019 16.6295 8.99708C16.5745 8.84396 16.5495 8.6812 16.5561 8.51816C16.5505 8.35673 16.5782 8.19592 16.6374 8.04623C16.6966 7.89653 16.7859 7.76132 16.8995 7.64943C17.0119 7.53869 17.1447 7.45193 17.2901 7.39417C17.4355 7.33641 17.5906 7.30878 17.7465 7.3129C18.1128 7.3129 18.4002 7.42508 18.6088 7.64943C18.714 7.76602 18.7959 7.90277 18.8495 8.05184C18.9032 8.20091 18.9277 8.35937 18.9216 8.51816C18.928 8.68184 18.9022 8.84516 18.8459 8.99843C18.7895 9.1517 18.7037 9.29179 18.5935 9.41037C18.4783 9.5268 18.3409 9.61751 18.1899 9.67677C18.0388 9.73604 17.8775 9.76258 17.716 9.75473ZM16.6629 18.1916V10.7095C16.6629 10.6156 16.7034 10.5687 16.785 10.5687H18.6622C18.7435 10.5687 18.7842 10.6156 18.7843 10.7095V18.1916C18.7843 18.296 18.7436 18.3482 18.6622 18.3481H16.8003C16.7087 18.3481 16.6629 18.2959 16.6629 18.1916Z" fill="#FF9A00"/>
</svg>
