<svg width="149" height="150" viewBox="0 0 149 150" fill="none" xmlns="http://www.w3.org/2000/svg">
<rect x="9.59277" y="10.1631" width="129.814" height="129.814" rx="6" fill="#0080D0"/>
<rect x="9.59277" y="10.1631" width="129.814" height="129.814" rx="6" fill="#0080D0"/>
<rect x="9.59277" y="10.1631" width="129.814" height="129.814" rx="6" fill="#0080D0"/>
<path d="M106.954 49.571C106.954 53.4118 103.84 56.5254 99.9993 56.5254C96.1585 56.5254 93.0449 53.4118 93.0449 49.571C93.0449 45.7303 96.1585 42.6167 99.9993 42.6167C103.84 42.6167 106.954 45.7303 106.954 49.571Z" fill="white"/>
<path fill-rule="evenodd" clip-rule="evenodd" d="M74.5 98.2515C87.3026 98.2515 97.6812 87.8729 97.6812 75.0703C97.6812 62.2677 87.3026 51.8892 74.5 51.8892C61.6974 51.8892 51.3188 62.2677 51.3188 75.0703C51.3188 87.8729 61.6974 98.2515 74.5 98.2515ZM74.5 88.979C82.1816 88.979 88.4087 82.7519 88.4087 75.0703C88.4087 67.3888 82.1816 61.1616 74.5 61.1616C66.8184 61.1616 60.5913 67.3888 60.5913 75.0703C60.5913 82.7519 66.8184 88.979 74.5 88.979Z" fill="white"/>
<path fill-rule="evenodd" clip-rule="evenodd" d="M28.1377 73.2158C28.1377 57.6366 28.1377 49.847 31.1696 43.8966C33.8366 38.6624 38.0921 34.4069 43.3263 31.7399C49.2767 28.708 57.0663 28.708 72.6455 28.708H76.3545C91.9337 28.708 99.7233 28.708 105.674 31.7399C110.908 34.4069 115.163 38.6624 117.83 43.8966C120.862 49.847 120.862 57.6366 120.862 73.2158V76.9248C120.862 92.504 120.862 100.294 117.83 106.244C115.163 111.478 110.908 115.734 105.674 118.401C99.7233 121.433 91.9337 121.433 76.3545 121.433H72.6455C57.0663 121.433 49.2767 121.433 43.3263 118.401C38.0921 115.734 33.8366 111.478 31.1696 106.244C28.1377 100.294 28.1377 92.504 28.1377 76.9248V73.2158ZM72.6455 37.9805H76.3545C84.2971 37.9805 89.6964 37.9877 93.8698 38.3287C97.935 38.6608 100.014 39.2628 101.464 40.0017C104.954 41.7797 107.791 44.6167 109.569 48.1062C110.307 49.5564 110.91 51.6353 111.242 55.7005C111.583 59.8739 111.59 65.2732 111.59 73.2158V76.9248C111.59 84.8674 111.583 90.2667 111.242 94.4401C110.91 98.5053 110.307 100.584 109.569 102.034C107.791 105.524 104.954 108.361 101.464 110.139C100.014 110.878 97.935 111.48 93.8698 111.812C89.6964 112.153 84.2971 112.16 76.3545 112.16H72.6455C64.7029 112.16 59.3036 112.153 55.1302 111.812C51.065 111.48 48.9861 110.878 47.5359 110.139C44.0464 108.361 41.2094 105.524 39.4314 102.034C38.6925 100.584 38.0905 98.5053 37.7584 94.4401C37.4174 90.2667 37.4102 84.8674 37.4102 76.9248V73.2158C37.4102 65.2732 37.4174 59.8739 37.7584 55.7005C38.0905 51.6353 38.6925 49.5564 39.4314 48.1062C41.2094 44.6167 44.0464 41.7797 47.5359 40.0017C48.9861 39.2628 51.065 38.6608 55.1302 38.3287C59.3036 37.9877 64.7029 37.9805 72.6455 37.9805Z" fill="white"/>
</svg>
