<svg width="149" height="149" viewBox="0 0 149 149" fill="none" xmlns="http://www.w3.org/2000/svg">
<path d="M148.349 74.1823C148.349 111.648 120.578 142.621 84.5021 147.647C81.1288 148.115 77.6777 148.359 74.1745 148.359C70.1308 148.359 66.1598 148.037 62.2929 147.413C26.9754 141.727 0 111.102 0 74.1823C0 33.2136 33.2125 0 74.1797 0C115.147 0 148.359 33.2136 148.359 74.1823H148.349Z" fill="#0080D0"/>
<path d="M30.0836 32.7145L64.294 78.4547L29.8705 115.645H37.6201L67.7608 83.0859L92.1114 115.645H118.479L82.3451 67.3316L114.388 32.7145H106.639L78.8835 62.7004L56.4561 32.7145H30.0887H30.0836ZM41.4766 38.4217H53.587L107.075 109.938H94.9648L41.4766 38.4217Z" fill="white"/>
</svg>
